<?xml version="1.0" encoding="UTF-8" standalone="no"?><svg xmlns="http://www.w3.org/2000/svg" xmlns:xlink="http://www.w3.org/1999/xlink" contentStyleType="text/css" height="592px" preserveAspectRatio="none" style="width:873px;height:592px;background:#FFFFFF;" version="1.1" viewBox="0 0 873 592" width="873px" zoomAndPan="magnify"><defs/><g><ellipse cx="360.5" cy="20" fill="#222222" rx="10" ry="10" style="stroke:#222222;stroke-width:1.0;"/><rect fill="none" height="499.5234" style="stroke:#000000;stroke-width:1.5;" width="851.5" x="11" y="40"/><path d="M103,40 L103,49.2969 L93,59.2969 L11,59.2969 " fill="none" style="stroke:#000000;stroke-width:1.5;"/><text fill="#000000" font-family="sans-serif" font-size="14" lengthAdjust="spacing" textLength="82" x="14" y="53.9951">Quizz exam</text><path d="M476,80.7148 L476,89.2813 L456,93.2813 L476,97.2813 L476,105.8477 A0,0 0 0 0 476,105.8477 L719,105.8477 A0,0 0 0 0 719,105.8477 L719,90.7148 L709,80.7148 L476,80.7148 A0,0 0 0 0 476,80.7148 " fill="#FEFFDD" style="stroke:#181818;stroke-width:0.5;"/><path d="M709,80.7148 L709,90.7148 L719,90.7148 L709,80.7148 " fill="#FEFFDD" style="stroke:#181818;stroke-width:0.5;"/><text fill="#000000" font-family="sans-serif" font-size="13" lengthAdjust="spacing" textLength="222" x="482" y="97.7817">Remember to create a SLIM image</text><rect fill="#AFEEEE" height="33.9688" rx="12.5" ry="12.5" style="stroke:#181818;stroke-width:0.5;" width="191" x="265" y="76.2969"/><text fill="#000000" font-family="sans-serif" font-size="12" lengthAdjust="spacing" textLength="167" x="279" y="97.4355">Build "cliapp" docker image</text><rect fill="#F4A460" height="33.9688" rx="12.5" ry="12.5" style="stroke:#181818;stroke-width:0.5;" width="191" x="265" y="130.2656"/><text fill="#000000" font-family="sans-serif" font-size="12" lengthAdjust="spacing" textLength="167" x="279" y="151.4043">upload image to dockerhub</text><path d="M466.5,181.0859 L466.5,197.2188 L446.5,201.2188 L466.5,205.2188 L466.5,221.3516 A0,0 0 0 0 466.5,221.3516 L852.5,221.3516 A0,0 0 0 0 852.5,221.3516 L852.5,191.0859 L842.5,181.0859 L466.5,181.0859 A0,0 0 0 0 466.5,181.0859 " fill="#FEFFDD" style="stroke:#181818;stroke-width:0.5;"/><path d="M842.5,181.0859 L842.5,191.0859 L852.5,191.0859 L842.5,181.0859 " fill="#FEFFDD" style="stroke:#181818;stroke-width:0.5;"/><text fill="#000000" font-family="sans-serif" font-size="13" lengthAdjust="spacing" textLength="285" x="472.5" y="198.1528">you need a configmap for the file config.yml</text><text fill="#000000" font-family="sans-serif" font-size="13" lengthAdjust="spacing" textLength="365" x="472.5" y="213.2856">IMPORTANT: your email xxxx@yncrea.fr is your identifier</text><rect fill="#F4A460" height="33.9688" rx="12.5" ry="12.5" style="stroke:#181818;stroke-width:0.5;" width="172" x="274.5" y="184.2344"/><text fill="#000000" font-family="sans-serif" font-size="12" lengthAdjust="spacing" textLength="148" x="288.5" y="205.373">Create your manifest file</text><path d="M460.5,245.7695 L460.5,254.3359 L440.5,258.3359 L460.5,262.3359 L460.5,270.9023 A0,0 0 0 0 460.5,270.9023 L599.5,270.9023 A0,0 0 0 0 599.5,270.9023 L599.5,255.7695 L589.5,245.7695 L460.5,245.7695 A0,0 0 0 0 460.5,245.7695 " fill="#FEFFDD" style="stroke:#181818;stroke-width:0.5;"/><path d="M589.5,245.7695 L589.5,255.7695 L599.5,255.7695 L589.5,245.7695 " fill="#FEFFDD" style="stroke:#181818;stroke-width:0.5;"/><text fill="#000000" font-family="sans-serif" font-size="13" lengthAdjust="spacing" textLength="118" x="466.5" y="262.8364">OPTION: +2 points</text><rect fill="#AFEEEE" height="33.9688" rx="12.5" ry="12.5" style="stroke:#181818;stroke-width:0.5;" width="160" x="280.5" y="241.3516"/><text fill="#000000" font-family="sans-serif" font-size="12" lengthAdjust="spacing" textLength="136" x="294.5" y="262.4902">Traefik ingress routing</text><rect fill="none" height="134.2656" style="stroke:#000000;stroke-width:1.5;" width="704" x="21" y="285.3203"/><path d="M119,285.3203 L119,294.6172 L109,304.6172 L21,304.6172 " fill="none" style="stroke:#000000;stroke-width:1.5;"/><text fill="#000000" font-family="sans-serif" font-size="14" lengthAdjust="spacing" textLength="88" x="24" y="299.3154">deployment</text><rect fill="#555555" height="6" rx="2.5" ry="2.5" style="stroke:#555555;stroke-width:1.0;" width="684" x="31" y="321.6172"/><rect fill="#AFEEEE" height="33.9688" rx="12.5" ry="12.5" style="stroke:#181818;stroke-width:0.5;" width="48" x="43" y="347.6172"/><text fill="#000000" font-family="sans-serif" font-size="12" lengthAdjust="spacing" textLength="24" x="57" y="368.7559">K3d</text><rect fill="#98FB98" height="33.9688" rx="12.5" ry="12.5" style="stroke:#181818;stroke-width:0.5;" width="107" x="114" y="347.6172"/><text fill="#000000" font-family="sans-serif" font-size="12" lengthAdjust="spacing" textLength="83" x="128" y="368.7559">K3s on 2 VMs</text><path d="M402,352.0352 L402,360.6016 L382,364.6016 L402,368.6016 L402,377.168 A0,0 0 0 0 402,377.168 L479,377.168 A0,0 0 0 0 479,377.168 L479,362.0352 L469,352.0352 L402,352.0352 A0,0 0 0 0 402,352.0352 " fill="#FEFFDD" style="stroke:#181818;stroke-width:0.5;"/><path d="M469,352.0352 L469,362.0352 L479,362.0352 L469,352.0352 " fill="#FEFFDD" style="stroke:#181818;stroke-width:0.5;"/><text fill="#000000" font-family="sans-serif" font-size="13" lengthAdjust="spacing" textLength="56" x="408" y="369.1021">-2 points</text><rect fill="#BC8F8F" height="33.9688" rx="12.5" ry="12.5" style="stroke:#181818;stroke-width:0.5;" width="151" x="231" y="347.6172"/><text fill="#000000" font-family="sans-serif" font-size="12" lengthAdjust="spacing" textLength="127" x="245" y="368.7559">Docker Desktop K8S</text><path d="M624,352.0352 L624,360.6016 L604,364.6016 L624,368.6016 L624,377.168 A0,0 0 0 0 624,377.168 L701,377.168 A0,0 0 0 0 701,377.168 L701,362.0352 L691,352.0352 L624,352.0352 A0,0 0 0 0 624,352.0352 " fill="#FEFFDD" style="stroke:#181818;stroke-width:0.5;"/><path d="M691,352.0352 L691,362.0352 L701,362.0352 L691,352.0352 " fill="#FEFFDD" style="stroke:#181818;stroke-width:0.5;"/><text fill="#000000" font-family="sans-serif" font-size="13" lengthAdjust="spacing" textLength="56" x="630" y="369.1021">-3 points</text><rect fill="#D8BFD8" height="33.9688" rx="12.5" ry="12.5" style="stroke:#181818;stroke-width:0.5;" width="97" x="507" y="347.6172"/><text fill="#000000" font-family="sans-serif" font-size="12" lengthAdjust="spacing" textLength="73" x="521" y="368.7559">Docker only</text><rect fill="#555555" height="6" rx="2.5" ry="2.5" style="stroke:#555555;stroke-width:1.0;" width="684" x="31" y="401.5859"/><rect fill="#F4A460" height="33.9688" rx="12.5" ry="12.5" style="stroke:#181818;stroke-width:0.5;" width="157" x="282" y="439.5859"/><text fill="#000000" font-family="sans-serif" font-size="12" lengthAdjust="spacing" textLength="133" x="296" y="460.7246">Launch the application</text><path d="M447,497.9727 L447,506.5391 L427,510.5391 L447,514.5391 L447,523.1055 A0,0 0 0 0 447,523.1055 L737,523.1055 A0,0 0 0 0 737,523.1055 L737,507.9727 L727,497.9727 L447,497.9727 A0,0 0 0 0 447,497.9727 " fill="#FEFFDD" style="stroke:#181818;stroke-width:0.5;"/><path d="M727,497.9727 L727,507.9727 L737,507.9727 L727,497.9727 " fill="#FEFFDD" style="stroke:#181818;stroke-width:0.5;"/><text fill="#000000" font-family="sans-serif" font-size="13" lengthAdjust="spacing" textLength="269" x="453" y="515.0396">At the end, your data are stored remotely</text><rect fill="#F4A460" height="33.9688" rx="12.5" ry="12.5" style="stroke:#181818;stroke-width:0.5;" width="133" x="294" y="493.5547"/><text fill="#000000" font-family="sans-serif" font-size="12" lengthAdjust="spacing" textLength="109" x="308" y="514.6934">Execute the Quizz</text><ellipse cx="360.5" cy="570.5234" fill="none" rx="11" ry="11" style="stroke:#222222;stroke-width:1.0;"/><ellipse cx="360.5" cy="570.5234" fill="#222222" rx="6" ry="6" style="stroke:#111111;stroke-width:1.0;"/><line style="stroke:#181818;stroke-width:1.0;" x1="360.5" x2="360.5" y1="110.2656" y2="130.2656"/><polygon fill="#181818" points="356.5,120.2656,360.5,130.2656,364.5,120.2656,360.5,124.2656" style="stroke:#181818;stroke-width:1.0;"/><line style="stroke:#181818;stroke-width:1.0;" x1="360.5" x2="360.5" y1="164.2344" y2="184.2344"/><polygon fill="#181818" points="356.5,174.2344,360.5,184.2344,364.5,174.2344,360.5,178.2344" style="stroke:#181818;stroke-width:1.0;"/><line style="stroke:#181818;stroke-width:1.0;" x1="360.5" x2="360.5" y1="218.2031" y2="241.3516"/><polygon fill="#181818" points="356.5,231.3516,360.5,241.3516,364.5,231.3516,360.5,235.3516" style="stroke:#181818;stroke-width:1.0;"/><line style="stroke:#181818;stroke-width:1.0;" x1="67" x2="67" y1="327.6172" y2="347.6172"/><polygon fill="#181818" points="63,337.6172,67,347.6172,71,337.6172,67,341.6172" style="stroke:#181818;stroke-width:1.0;"/><line style="stroke:#181818;stroke-width:1.0;" x1="167.5" x2="167.5" y1="327.6172" y2="347.6172"/><polygon fill="#181818" points="163.5,337.6172,167.5,347.6172,171.5,337.6172,167.5,341.6172" style="stroke:#181818;stroke-width:1.0;"/><line style="stroke:#181818;stroke-width:1.0;" x1="306.5" x2="306.5" y1="327.6172" y2="347.6172"/><polygon fill="#181818" points="302.5,337.6172,306.5,347.6172,310.5,337.6172,306.5,341.6172" style="stroke:#181818;stroke-width:1.0;"/><line style="stroke:#181818;stroke-width:1.0;" x1="555.5" x2="555.5" y1="327.6172" y2="347.6172"/><polygon fill="#181818" points="551.5,337.6172,555.5,347.6172,559.5,337.6172,555.5,341.6172" style="stroke:#181818;stroke-width:1.0;"/><line style="stroke:#181818;stroke-width:1.0;" x1="67" x2="67" y1="381.5859" y2="401.5859"/><polygon fill="#181818" points="63,391.5859,67,401.5859,71,391.5859,67,395.5859" style="stroke:#181818;stroke-width:1.0;"/><line style="stroke:#181818;stroke-width:1.0;" x1="167.5" x2="167.5" y1="381.5859" y2="401.5859"/><polygon fill="#181818" points="163.5,391.5859,167.5,401.5859,171.5,391.5859,167.5,395.5859" style="stroke:#181818;stroke-width:1.0;"/><line style="stroke:#181818;stroke-width:1.0;" x1="306.5" x2="306.5" y1="381.5859" y2="401.5859"/><polygon fill="#181818" points="302.5,391.5859,306.5,401.5859,310.5,391.5859,306.5,395.5859" style="stroke:#181818;stroke-width:1.0;"/><line style="stroke:#181818;stroke-width:1.0;" x1="555.5" x2="555.5" y1="381.5859" y2="401.5859"/><polygon fill="#181818" points="551.5,391.5859,555.5,401.5859,559.5,391.5859,555.5,395.5859" style="stroke:#181818;stroke-width:1.0;"/><line style="stroke:#181818;stroke-width:1.0;" x1="360.5" x2="360.5" y1="275.3203" y2="321.6172"/><polygon fill="#181818" points="356.5,311.6172,360.5,321.6172,364.5,311.6172,360.5,315.6172" style="stroke:#181818;stroke-width:1.0;"/><line style="stroke:#181818;stroke-width:1.0;" x1="360.5" x2="360.5" y1="407.5859" y2="439.5859"/><polygon fill="#181818" points="356.5,429.5859,360.5,439.5859,364.5,429.5859,360.5,433.5859" style="stroke:#181818;stroke-width:1.0;"/><line style="stroke:#181818;stroke-width:1.0;" x1="360.5" x2="360.5" y1="473.5547" y2="493.5547"/><polygon fill="#181818" points="356.5,483.5547,360.5,493.5547,364.5,483.5547,360.5,487.5547" style="stroke:#181818;stroke-width:1.0;"/><line style="stroke:#181818;stroke-width:1.0;" x1="360.5" x2="360.5" y1="30" y2="76.2969"/><polygon fill="#181818" points="356.5,66.2969,360.5,76.2969,364.5,66.2969,360.5,70.2969" style="stroke:#181818;stroke-width:1.0;"/><line style="stroke:#181818;stroke-width:1.0;" x1="360.5" x2="360.5" y1="527.5234" y2="559.5234"/><polygon fill="#181818" points="356.5,549.5234,360.5,559.5234,364.5,549.5234,360.5,553.5234" style="stroke:#181818;stroke-width:1.0;"/><!--SRC=[PL9DJzj04BtxLup2iPG3NAhaKYXL5K58cbZS1-_O7cK_tFrGOn3_lMClb9ZimLhvlNtpPjw4Y3uMdNmuihCm-vtu-HdeW6O6ByNP1ZMLoVz9ZWFDuIQnLZ2hD6FNpK2vQayUs613YyAwIE2vQMEn9KFcIQ3eeFA40Y3ixfUhp2t8AXZenTaEhUfllFjhvv0wxL1bol0ooxVfQJ7b_SYAlKiU35gkAKIeMKyz20oMI4dbojcQ6uCTr4uyjJIottvVz4ONozLclIsl7yfvbYM3hE4WvtjlXmukQkapP90LsSWrapzgvDEaIezKynxODfv20EzIbFl4uNfJBjSFS_Xo2PrZ6yE7t54YYcGilP6IGoBImFwasDsLMem8O8DiC_xB4za12o0ob_2u2bFIreNtYTxc86yfxAFhuExRRcBqwwd1Ow6ovH0r_PTnLlSBc0XSdGWCbx6PrscuzvXirOuXoOvfhd0OmwSD-7cWAedwm1etTcBtEew0L3ZFWIcC2EW9GdHUDiAJ4RRkFzoy5W9r_m00]--></g></svg>