<?xml version="1.0" encoding="UTF-8" standalone="no"?><svg xmlns="http://www.w3.org/2000/svg" xmlns:xlink="http://www.w3.org/1999/xlink" contentStyleType="text/css" height="646px" preserveAspectRatio="none" style="width:873px;height:646px;background:#FFFFFF;" version="1.1" viewBox="0 0 873 646" width="873px" zoomAndPan="magnify"><defs/><g><ellipse cx="360.5" cy="20" fill="#222222" rx="10" ry="10" style="stroke:#222222;stroke-width:1.0;"/><rect fill="none" height="553.4922" style="stroke:#000000;stroke-width:1.5;" width="851.5" x="11" y="40"/><path d="M103,40 L103,49.2969 L93,59.2969 L11,59.2969 " fill="none" style="stroke:#000000;stroke-width:1.5;"/><text fill="#000000" font-family="sans-serif" font-size="14" lengthAdjust="spacing" textLength="82" x="14" y="53.9951">Quizz exam</text><path d="M476,80.7148 L476,89.2813 L456,93.2813 L476,97.2813 L476,105.8477 A0,0 0 0 0 476,105.8477 L719,105.8477 A0,0 0 0 0 719,105.8477 L719,90.7148 L709,80.7148 L476,80.7148 A0,0 0 0 0 476,80.7148 " fill="#FEFFDD" style="stroke:#181818;stroke-width:0.5;"/><path d="M709,80.7148 L709,90.7148 L719,90.7148 L709,80.7148 " fill="#FEFFDD" style="stroke:#181818;stroke-width:0.5;"/><text fill="#000000" font-family="sans-serif" font-size="13" lengthAdjust="spacing" textLength="222" x="482" y="97.7817">Remember to create a SLIM image</text><rect fill="#AFEEEE" height="33.9688" rx="12.5" ry="12.5" style="stroke:#181818;stroke-width:0.5;" width="191" x="265" y="76.2969"/><text fill="#000000" font-family="sans-serif" font-size="12" lengthAdjust="spacing" textLength="167" x="279" y="97.4355">Build "cliapp" docker image</text><rect fill="#BC8F8F" height="33.9688" rx="12.5" ry="12.5" style="stroke:#181818;stroke-width:0.5;" width="197" x="262" y="130.2656"/><text fill="#000000" font-family="sans-serif" font-size="12" lengthAdjust="spacing" textLength="173" x="276" y="151.4043">Test your image with docker</text><rect fill="#F4A460" height="33.9688" rx="12.5" ry="12.5" style="stroke:#181818;stroke-width:0.5;" width="191" x="265" y="184.2344"/><text fill="#000000" font-family="sans-serif" font-size="12" lengthAdjust="spacing" textLength="167" x="279" y="205.373">upload image to dockerhub</text><path d="M466.5,235.0547 L466.5,251.1875 L446.5,255.1875 L466.5,259.1875 L466.5,275.3203 A0,0 0 0 0 466.5,275.3203 L852.5,275.3203 A0,0 0 0 0 852.5,275.3203 L852.5,245.0547 L842.5,235.0547 L466.5,235.0547 A0,0 0 0 0 466.5,235.0547 " fill="#FEFFDD" style="stroke:#181818;stroke-width:0.5;"/><path d="M842.5,235.0547 L842.5,245.0547 L852.5,245.0547 L842.5,235.0547 " fill="#FEFFDD" style="stroke:#181818;stroke-width:0.5;"/><text fill="#000000" font-family="sans-serif" font-size="13" lengthAdjust="spacing" textLength="285" x="472.5" y="252.1216">you need a configmap for the file config.yml</text><text fill="#000000" font-family="sans-serif" font-size="13" lengthAdjust="spacing" textLength="365" x="472.5" y="267.2544">IMPORTANT: your email xxxx@yncrea.fr is your identifier</text><rect fill="#F4A460" height="33.9688" rx="12.5" ry="12.5" style="stroke:#181818;stroke-width:0.5;" width="172" x="274.5" y="238.2031"/><text fill="#000000" font-family="sans-serif" font-size="12" lengthAdjust="spacing" textLength="148" x="288.5" y="259.3418">Create your manifest file</text><path d="M460.5,299.7383 L460.5,308.3047 L440.5,312.3047 L460.5,316.3047 L460.5,324.8711 A0,0 0 0 0 460.5,324.8711 L599.5,324.8711 A0,0 0 0 0 599.5,324.8711 L599.5,309.7383 L589.5,299.7383 L460.5,299.7383 A0,0 0 0 0 460.5,299.7383 " fill="#FEFFDD" style="stroke:#181818;stroke-width:0.5;"/><path d="M589.5,299.7383 L589.5,309.7383 L599.5,309.7383 L589.5,299.7383 " fill="#FEFFDD" style="stroke:#181818;stroke-width:0.5;"/><text fill="#000000" font-family="sans-serif" font-size="13" lengthAdjust="spacing" textLength="118" x="466.5" y="316.8052">OPTION: +2 points</text><rect fill="#AFEEEE" height="33.9688" rx="12.5" ry="12.5" style="stroke:#181818;stroke-width:0.5;" width="160" x="280.5" y="295.3203"/><text fill="#000000" font-family="sans-serif" font-size="12" lengthAdjust="spacing" textLength="136" x="294.5" y="316.459">Traefik ingress routing</text><rect fill="none" height="134.2656" style="stroke:#000000;stroke-width:1.5;" width="704" x="21" y="339.2891"/><path d="M119,339.2891 L119,348.5859 L109,358.5859 L21,358.5859 " fill="none" style="stroke:#000000;stroke-width:1.5;"/><text fill="#000000" font-family="sans-serif" font-size="14" lengthAdjust="spacing" textLength="88" x="24" y="353.2842">deployment</text><rect fill="#555555" height="6" rx="2.5" ry="2.5" style="stroke:#555555;stroke-width:1.0;" width="684" x="31" y="375.5859"/><rect fill="#AFEEEE" height="33.9688" rx="12.5" ry="12.5" style="stroke:#181818;stroke-width:0.5;" width="48" x="43" y="401.5859"/><text fill="#000000" font-family="sans-serif" font-size="12" lengthAdjust="spacing" textLength="24" x="57" y="422.7246">K3d</text><rect fill="#98FB98" height="33.9688" rx="12.5" ry="12.5" style="stroke:#181818;stroke-width:0.5;" width="107" x="114" y="401.5859"/><text fill="#000000" font-family="sans-serif" font-size="12" lengthAdjust="spacing" textLength="83" x="128" y="422.7246">K3s on 2 VMs</text><path d="M402,406.0039 L402,414.5703 L382,418.5703 L402,422.5703 L402,431.1367 A0,0 0 0 0 402,431.1367 L479,431.1367 A0,0 0 0 0 479,431.1367 L479,416.0039 L469,406.0039 L402,406.0039 A0,0 0 0 0 402,406.0039 " fill="#FEFFDD" style="stroke:#181818;stroke-width:0.5;"/><path d="M469,406.0039 L469,416.0039 L479,416.0039 L469,406.0039 " fill="#FEFFDD" style="stroke:#181818;stroke-width:0.5;"/><text fill="#000000" font-family="sans-serif" font-size="13" lengthAdjust="spacing" textLength="56" x="408" y="423.0708">-2 points</text><rect fill="#BC8F8F" height="33.9688" rx="12.5" ry="12.5" style="stroke:#181818;stroke-width:0.5;" width="151" x="231" y="401.5859"/><text fill="#000000" font-family="sans-serif" font-size="12" lengthAdjust="spacing" textLength="127" x="245" y="422.7246">Docker Desktop K8S</text><path d="M624,406.0039 L624,414.5703 L604,418.5703 L624,422.5703 L624,431.1367 A0,0 0 0 0 624,431.1367 L701,431.1367 A0,0 0 0 0 701,431.1367 L701,416.0039 L691,406.0039 L624,406.0039 A0,0 0 0 0 624,406.0039 " fill="#FEFFDD" style="stroke:#181818;stroke-width:0.5;"/><path d="M691,406.0039 L691,416.0039 L701,416.0039 L691,406.0039 " fill="#FEFFDD" style="stroke:#181818;stroke-width:0.5;"/><text fill="#000000" font-family="sans-serif" font-size="13" lengthAdjust="spacing" textLength="56" x="630" y="423.0708">-3 points</text><rect fill="#D8BFD8" height="33.9688" rx="12.5" ry="12.5" style="stroke:#181818;stroke-width:0.5;" width="97" x="507" y="401.5859"/><text fill="#000000" font-family="sans-serif" font-size="12" lengthAdjust="spacing" textLength="73" x="521" y="422.7246">Docker only</text><rect fill="#555555" height="6" rx="2.5" ry="2.5" style="stroke:#555555;stroke-width:1.0;" width="684" x="31" y="455.5547"/><rect fill="#F4A460" height="33.9688" rx="12.5" ry="12.5" style="stroke:#181818;stroke-width:0.5;" width="157" x="282" y="493.5547"/><text fill="#000000" font-family="sans-serif" font-size="12" lengthAdjust="spacing" textLength="133" x="296" y="514.6934">Launch the application</text><path d="M447,551.9414 L447,560.5078 L427,564.5078 L447,568.5078 L447,577.0742 A0,0 0 0 0 447,577.0742 L737,577.0742 A0,0 0 0 0 737,577.0742 L737,561.9414 L727,551.9414 L447,551.9414 A0,0 0 0 0 447,551.9414 " fill="#FEFFDD" style="stroke:#181818;stroke-width:0.5;"/><path d="M727,551.9414 L727,561.9414 L737,561.9414 L727,551.9414 " fill="#FEFFDD" style="stroke:#181818;stroke-width:0.5;"/><text fill="#000000" font-family="sans-serif" font-size="13" lengthAdjust="spacing" textLength="269" x="453" y="569.0083">At the end, your data are stored remotely</text><rect fill="#F4A460" height="33.9688" rx="12.5" ry="12.5" style="stroke:#181818;stroke-width:0.5;" width="133" x="294" y="547.5234"/><text fill="#000000" font-family="sans-serif" font-size="12" lengthAdjust="spacing" textLength="109" x="308" y="568.6621">Execute the Quizz</text><ellipse cx="360.5" cy="624.4922" fill="none" rx="11" ry="11" style="stroke:#222222;stroke-width:1.0;"/><ellipse cx="360.5" cy="624.4922" fill="#222222" rx="6" ry="6" style="stroke:#111111;stroke-width:1.0;"/><line style="stroke:#181818;stroke-width:1.0;" x1="360.5" x2="360.5" y1="110.2656" y2="130.2656"/><polygon fill="#181818" points="356.5,120.2656,360.5,130.2656,364.5,120.2656,360.5,124.2656" style="stroke:#181818;stroke-width:1.0;"/><line style="stroke:#181818;stroke-width:1.0;" x1="360.5" x2="360.5" y1="164.2344" y2="184.2344"/><polygon fill="#181818" points="356.5,174.2344,360.5,184.2344,364.5,174.2344,360.5,178.2344" style="stroke:#181818;stroke-width:1.0;"/><line style="stroke:#181818;stroke-width:1.0;" x1="360.5" x2="360.5" y1="218.2031" y2="238.2031"/><polygon fill="#181818" points="356.5,228.2031,360.5,238.2031,364.5,228.2031,360.5,232.2031" style="stroke:#181818;stroke-width:1.0;"/><line style="stroke:#181818;stroke-width:1.0;" x1="360.5" x2="360.5" y1="272.1719" y2="295.3203"/><polygon fill="#181818" points="356.5,285.3203,360.5,295.3203,364.5,285.3203,360.5,289.3203" style="stroke:#181818;stroke-width:1.0;"/><line style="stroke:#181818;stroke-width:1.0;" x1="67" x2="67" y1="381.5859" y2="401.5859"/><polygon fill="#181818" points="63,391.5859,67,401.5859,71,391.5859,67,395.5859" style="stroke:#181818;stroke-width:1.0;"/><line style="stroke:#181818;stroke-width:1.0;" x1="167.5" x2="167.5" y1="381.5859" y2="401.5859"/><polygon fill="#181818" points="163.5,391.5859,167.5,401.5859,171.5,391.5859,167.5,395.5859" style="stroke:#181818;stroke-width:1.0;"/><line style="stroke:#181818;stroke-width:1.0;" x1="306.5" x2="306.5" y1="381.5859" y2="401.5859"/><polygon fill="#181818" points="302.5,391.5859,306.5,401.5859,310.5,391.5859,306.5,395.5859" style="stroke:#181818;stroke-width:1.0;"/><line style="stroke:#181818;stroke-width:1.0;" x1="555.5" x2="555.5" y1="381.5859" y2="401.5859"/><polygon fill="#181818" points="551.5,391.5859,555.5,401.5859,559.5,391.5859,555.5,395.5859" style="stroke:#181818;stroke-width:1.0;"/><line style="stroke:#181818;stroke-width:1.0;" x1="67" x2="67" y1="435.5547" y2="455.5547"/><polygon fill="#181818" points="63,445.5547,67,455.5547,71,445.5547,67,449.5547" style="stroke:#181818;stroke-width:1.0;"/><line style="stroke:#181818;stroke-width:1.0;" x1="167.5" x2="167.5" y1="435.5547" y2="455.5547"/><polygon fill="#181818" points="163.5,445.5547,167.5,455.5547,171.5,445.5547,167.5,449.5547" style="stroke:#181818;stroke-width:1.0;"/><line style="stroke:#181818;stroke-width:1.0;" x1="306.5" x2="306.5" y1="435.5547" y2="455.5547"/><polygon fill="#181818" points="302.5,445.5547,306.5,455.5547,310.5,445.5547,306.5,449.5547" style="stroke:#181818;stroke-width:1.0;"/><line style="stroke:#181818;stroke-width:1.0;" x1="555.5" x2="555.5" y1="435.5547" y2="455.5547"/><polygon fill="#181818" points="551.5,445.5547,555.5,455.5547,559.5,445.5547,555.5,449.5547" style="stroke:#181818;stroke-width:1.0;"/><line style="stroke:#181818;stroke-width:1.0;" x1="360.5" x2="360.5" y1="329.2891" y2="375.5859"/><polygon fill="#181818" points="356.5,365.5859,360.5,375.5859,364.5,365.5859,360.5,369.5859" style="stroke:#181818;stroke-width:1.0;"/><line style="stroke:#181818;stroke-width:1.0;" x1="360.5" x2="360.5" y1="461.5547" y2="493.5547"/><polygon fill="#181818" points="356.5,483.5547,360.5,493.5547,364.5,483.5547,360.5,487.5547" style="stroke:#181818;stroke-width:1.0;"/><line style="stroke:#181818;stroke-width:1.0;" x1="360.5" x2="360.5" y1="527.5234" y2="547.5234"/><polygon fill="#181818" points="356.5,537.5234,360.5,547.5234,364.5,537.5234,360.5,541.5234" style="stroke:#181818;stroke-width:1.0;"/><line style="stroke:#181818;stroke-width:1.0;" x1="360.5" x2="360.5" y1="30" y2="76.2969"/><polygon fill="#181818" points="356.5,66.2969,360.5,76.2969,364.5,66.2969,360.5,70.2969" style="stroke:#181818;stroke-width:1.0;"/><line style="stroke:#181818;stroke-width:1.0;" x1="360.5" x2="360.5" y1="581.4922" y2="613.4922"/><polygon fill="#181818" points="356.5,603.4922,360.5,613.4922,364.5,603.4922,360.5,607.4922" style="stroke:#181818;stroke-width:1.0;"/><!--SRC=[PLAxRjj04Epv5GkfJEB2RWAfYHq7WM3BKYGY_Pgt91Uw1tCFM7JWVy_ouLYKM127cy7CxCs6Y3vcZVmuihCm-vNuzHNeY6O6VxFv5ZNboVz9ZWCju2wnLZ0hD6FJp42vua0Us615oyowIE2vgcEs8qFcMQ3eeF240Y3i7rVhWPkHLT3Hi_dEXVREknUxW9n2XDQbKH1UEDQZnJARxz6gTsPgj4CrqiHY8DNf-OptVR3kDGrQBZk7alKqhC1WYPH4B9mjkJBOGEaaV4qzUxo-QetELkljPfVVFkMBGPOCieQZVDzQsurwLKh-CCwXo4OkcVp9n6TFcdkaaW_0jl8K0dYNefmd2JVRVBLvMi2dQsWSsnW-v4wgKoJFqXgnxAgJ0GuNPWytQjaZW1Mo7V2VdiXsM02HkORVwp0bdNHqFpH-J-4GNGCFN_UJe5yk0vuAvJM7gEc_ZBEwNS94uEP2e3lqmxnDott4P8kwBqcMKNE1tJESRS2F8nL9r3jMlzgJkBUn1yJXyr2OmeY0dY14vsKZF1bXw_OZpLicKFCF]--></g></svg>