<?xml version="1.0" encoding="UTF-8" standalone="no"?><svg xmlns="http://www.w3.org/2000/svg" xmlns:xlink="http://www.w3.org/1999/xlink" contentScriptType="application/ecmascript" contentStyleType="text/css" height="598px" preserveAspectRatio="none" style="width:788px;height:598px;background:#FFFFFF;" version="1.1" viewBox="0 0 788 598" width="788px" zoomAndPan="magnify"><defs><filter height="300%" id="f2mrrs7ho87p" width="300%" x="-1" y="-1"><feGaussianBlur result="blurOut" stdDeviation="2.0"/><feColorMatrix in="blurOut" result="blurOut2" type="matrix" values="0 0 0 0 0 0 0 0 0 0 0 0 0 0 0 0 0 0 .4 0"/><feOffset dx="4.0" dy="4.0" in="blurOut2" result="blurOut3"/><feBlend in="SourceGraphic" in2="blurOut3" mode="normal"/></filter></defs><g><ellipse cx="269" cy="20" fill="#000000" filter="url(#f2mrrs7ho87p)" rx="10" ry="10" style="stroke:none;stroke-width:1.0;"/><rect fill="#FFFFFF" filter="url(#f2mrrs7ho87p)" height="499.5234" style="stroke:#000000;stroke-width:2.0;" width="760" x="11" y="40"/><path d="M103,40 L103,49.2969 L93,59.2969 L11,59.2969 " fill="none" style="stroke:#000000;stroke-width:2.0;"/><text fill="#000000" font-family="sans-serif" font-size="14" lengthAdjust="spacing" textLength="82" x="14" y="53.9951">Quizz exam</text><path d="M384.5,80.7148 L384.5,89.2813 L364.5,93.2813 L384.5,97.2813 L384.5,105.8477 A0,0 0 0 0 384.5,105.8477 L627.5,105.8477 A0,0 0 0 0 627.5,105.8477 L627.5,90.7148 L617.5,80.7148 L384.5,80.7148 A0,0 0 0 0 384.5,80.7148 " fill="#FBFB77" filter="url(#f2mrrs7ho87p)" style="stroke:#A80036;stroke-width:1.0;"/><path d="M617.5,80.7148 L617.5,90.7148 L627.5,90.7148 L617.5,80.7148 " fill="#FBFB77" style="stroke:#A80036;stroke-width:1.0;"/><text fill="#000000" font-family="sans-serif" font-size="13" lengthAdjust="spacing" textLength="222" x="390.5" y="97.7817">Remember to create a SLIM image</text><rect fill="#AFEEEE" filter="url(#f2mrrs7ho87p)" height="33.9688" rx="12.5" ry="12.5" style="stroke:#A80036;stroke-width:1.5;" width="191" x="173.5" y="76.2969"/><text fill="#000000" font-family="sans-serif" font-size="12" lengthAdjust="spacing" textLength="167" x="187.5" y="97.4355">Build "cliapp" docker image</text><rect fill="#F4A460" filter="url(#f2mrrs7ho87p)" height="33.9688" rx="12.5" ry="12.5" style="stroke:#A80036;stroke-width:1.5;" width="191" x="173.5" y="130.2656"/><text fill="#000000" font-family="sans-serif" font-size="12" lengthAdjust="spacing" textLength="167" x="187.5" y="151.4043">upload image to dockerhub</text><path d="M375,181.0859 L375,197.2188 L355,201.2188 L375,205.2188 L375,221.3516 A0,0 0 0 0 375,221.3516 L761,221.3516 A0,0 0 0 0 761,221.3516 L761,191.0859 L751,181.0859 L375,181.0859 A0,0 0 0 0 375,181.0859 " fill="#FBFB77" filter="url(#f2mrrs7ho87p)" style="stroke:#A80036;stroke-width:1.0;"/><path d="M751,181.0859 L751,191.0859 L761,191.0859 L751,181.0859 " fill="#FBFB77" style="stroke:#A80036;stroke-width:1.0;"/><text fill="#000000" font-family="sans-serif" font-size="13" lengthAdjust="spacing" textLength="285" x="381" y="198.1528">you need a configmap for the file config.yml</text><text fill="#000000" font-family="sans-serif" font-size="13" lengthAdjust="spacing" textLength="365" x="381" y="213.2856">IMPORTANT: your email xxxx@yncrea.fr is your identifier</text><rect fill="#F4A460" filter="url(#f2mrrs7ho87p)" height="33.9688" rx="12.5" ry="12.5" style="stroke:#A80036;stroke-width:1.5;" width="172" x="183" y="184.2344"/><text fill="#000000" font-family="sans-serif" font-size="12" lengthAdjust="spacing" textLength="148" x="197" y="205.373">Create your manifest file</text><path d="M369,245.7695 L369,254.3359 L349,258.3359 L369,262.3359 L369,270.9023 A0,0 0 0 0 369,270.9023 L508,270.9023 A0,0 0 0 0 508,270.9023 L508,255.7695 L498,245.7695 L369,245.7695 A0,0 0 0 0 369,245.7695 " fill="#FBFB77" filter="url(#f2mrrs7ho87p)" style="stroke:#A80036;stroke-width:1.0;"/><path d="M498,245.7695 L498,255.7695 L508,255.7695 L498,245.7695 " fill="#FBFB77" style="stroke:#A80036;stroke-width:1.0;"/><text fill="#000000" font-family="sans-serif" font-size="13" lengthAdjust="spacing" textLength="118" x="375" y="262.8364">OPTION: +2 points</text><rect fill="#AFEEEE" filter="url(#f2mrrs7ho87p)" height="33.9688" rx="12.5" ry="12.5" style="stroke:#A80036;stroke-width:1.5;" width="160" x="189" y="241.3516"/><text fill="#000000" font-family="sans-serif" font-size="12" lengthAdjust="spacing" textLength="136" x="203" y="262.4902">Traefik ingress routing</text><rect fill="#FFFFFF" filter="url(#f2mrrs7ho87p)" height="134.2656" style="stroke:#000000;stroke-width:2.0;" width="503" x="21" y="285.3203"/><path d="M119,285.3203 L119,294.6172 L109,304.6172 L21,304.6172 " fill="none" style="stroke:#000000;stroke-width:2.0;"/><text fill="#000000" font-family="sans-serif" font-size="14" lengthAdjust="spacing" textLength="88" x="24" y="299.3154">deployment</text><rect fill="#000000" filter="url(#f2mrrs7ho87p)" height="6" rx="2.5" ry="2.5" style="stroke:#000000;stroke-width:1.0;" width="483" x="31" y="321.6172"/><rect fill="#AFEEEE" filter="url(#f2mrrs7ho87p)" height="33.9688" rx="12.5" ry="12.5" style="stroke:#A80036;stroke-width:1.5;" width="48" x="43" y="347.6172"/><text fill="#000000" font-family="sans-serif" font-size="12" lengthAdjust="spacing" textLength="24" x="57" y="368.7559">K3d</text><rect fill="#AFEEEE" filter="url(#f2mrrs7ho87p)" height="33.9688" rx="12.5" ry="12.5" style="stroke:#A80036;stroke-width:1.5;" width="107" x="114" y="347.6172"/><text fill="#000000" font-family="sans-serif" font-size="12" lengthAdjust="spacing" textLength="83" x="128" y="368.7559">K3s on 2 VMs</text><path d="M366,352.0352 L366,360.6016 L346,364.6016 L366,368.6016 L366,377.168 A0,0 0 0 0 366,377.168 L500,377.168 A0,0 0 0 0 500,377.168 L500,362.0352 L490,352.0352 L366,352.0352 A0,0 0 0 0 366,352.0352 " fill="#FBFB77" filter="url(#f2mrrs7ho87p)" style="stroke:#A80036;stroke-width:1.0;"/><path d="M490,352.0352 L490,362.0352 L500,362.0352 L490,352.0352 " fill="#FBFB77" style="stroke:#A80036;stroke-width:1.0;"/><text fill="#000000" font-family="sans-serif" font-size="13" lengthAdjust="spacing" textLength="113" x="372" y="369.1021">OPTION: -2 points</text><rect fill="#AFEEEE" filter="url(#f2mrrs7ho87p)" height="33.9688" rx="12.5" ry="12.5" style="stroke:#A80036;stroke-width:1.5;" width="97" x="249" y="347.6172"/><text fill="#000000" font-family="sans-serif" font-size="12" lengthAdjust="spacing" textLength="73" x="263" y="368.7559">Docker only</text><rect fill="#000000" filter="url(#f2mrrs7ho87p)" height="6" rx="2.5" ry="2.5" style="stroke:#000000;stroke-width:1.0;" width="483" x="31" y="401.5859"/><rect fill="#F4A460" filter="url(#f2mrrs7ho87p)" height="33.9688" rx="12.5" ry="12.5" style="stroke:#A80036;stroke-width:1.5;" width="157" x="190.5" y="439.5859"/><text fill="#000000" font-family="sans-serif" font-size="12" lengthAdjust="spacing" textLength="133" x="204.5" y="460.7246">Launch the application</text><path d="M355.5,497.9727 L355.5,506.5391 L335.5,510.5391 L355.5,514.5391 L355.5,523.1055 A0,0 0 0 0 355.5,523.1055 L645.5,523.1055 A0,0 0 0 0 645.5,523.1055 L645.5,507.9727 L635.5,497.9727 L355.5,497.9727 A0,0 0 0 0 355.5,497.9727 " fill="#FBFB77" filter="url(#f2mrrs7ho87p)" style="stroke:#A80036;stroke-width:1.0;"/><path d="M635.5,497.9727 L635.5,507.9727 L645.5,507.9727 L635.5,497.9727 " fill="#FBFB77" style="stroke:#A80036;stroke-width:1.0;"/><text fill="#000000" font-family="sans-serif" font-size="13" lengthAdjust="spacing" textLength="269" x="361.5" y="515.0396">At the end, your data are stored remotely</text><rect fill="#F4A460" filter="url(#f2mrrs7ho87p)" height="33.9688" rx="12.5" ry="12.5" style="stroke:#A80036;stroke-width:1.5;" width="133" x="202.5" y="493.5547"/><text fill="#000000" font-family="sans-serif" font-size="12" lengthAdjust="spacing" textLength="109" x="216.5" y="514.6934">Execute the Quizz</text><ellipse cx="269" cy="570.5234" fill="#FFFFFF" filter="url(#f2mrrs7ho87p)" rx="11" ry="11" style="stroke:#000000;stroke-width:1.0;"/><ellipse cx="269" cy="570.5234" fill="#000000" rx="6" ry="6" style="stroke:#7F7F7F;stroke-width:1.0;"/><line style="stroke:#A80036;stroke-width:1.5;" x1="269" x2="269" y1="110.2656" y2="130.2656"/><polygon fill="#A80036" points="265,120.2656,269,130.2656,273,120.2656,269,124.2656" style="stroke:#A80036;stroke-width:1.0;"/><line style="stroke:#A80036;stroke-width:1.5;" x1="269" x2="269" y1="164.2344" y2="184.2344"/><polygon fill="#A80036" points="265,174.2344,269,184.2344,273,174.2344,269,178.2344" style="stroke:#A80036;stroke-width:1.0;"/><line style="stroke:#A80036;stroke-width:1.5;" x1="269" x2="269" y1="218.2031" y2="241.3516"/><polygon fill="#A80036" points="265,231.3516,269,241.3516,273,231.3516,269,235.3516" style="stroke:#A80036;stroke-width:1.0;"/><line style="stroke:#A80036;stroke-width:1.5;" x1="67" x2="67" y1="327.6172" y2="347.6172"/><polygon fill="#A80036" points="63,337.6172,67,347.6172,71,337.6172,67,341.6172" style="stroke:#A80036;stroke-width:1.0;"/><line style="stroke:#A80036;stroke-width:1.5;" x1="167.5" x2="167.5" y1="327.6172" y2="347.6172"/><polygon fill="#A80036" points="163.5,337.6172,167.5,347.6172,171.5,337.6172,167.5,341.6172" style="stroke:#A80036;stroke-width:1.0;"/><line style="stroke:#A80036;stroke-width:1.5;" x1="297.5" x2="297.5" y1="327.6172" y2="347.6172"/><polygon fill="#A80036" points="293.5,337.6172,297.5,347.6172,301.5,337.6172,297.5,341.6172" style="stroke:#A80036;stroke-width:1.0;"/><line style="stroke:#A80036;stroke-width:1.5;" x1="67" x2="67" y1="381.5859" y2="401.5859"/><polygon fill="#A80036" points="63,391.5859,67,401.5859,71,391.5859,67,395.5859" style="stroke:#A80036;stroke-width:1.0;"/><line style="stroke:#A80036;stroke-width:1.5;" x1="167.5" x2="167.5" y1="381.5859" y2="401.5859"/><polygon fill="#A80036" points="163.5,391.5859,167.5,401.5859,171.5,391.5859,167.5,395.5859" style="stroke:#A80036;stroke-width:1.0;"/><line style="stroke:#A80036;stroke-width:1.5;" x1="297.5" x2="297.5" y1="381.5859" y2="401.5859"/><polygon fill="#A80036" points="293.5,391.5859,297.5,401.5859,301.5,391.5859,297.5,395.5859" style="stroke:#A80036;stroke-width:1.0;"/><line style="stroke:#A80036;stroke-width:1.5;" x1="269" x2="269" y1="275.3203" y2="321.6172"/><polygon fill="#A80036" points="265,311.6172,269,321.6172,273,311.6172,269,315.6172" style="stroke:#A80036;stroke-width:1.0;"/><line style="stroke:#A80036;stroke-width:1.5;" x1="269" x2="269" y1="407.5859" y2="439.5859"/><polygon fill="#A80036" points="265,429.5859,269,439.5859,273,429.5859,269,433.5859" style="stroke:#A80036;stroke-width:1.0;"/><line style="stroke:#A80036;stroke-width:1.5;" x1="269" x2="269" y1="473.5547" y2="493.5547"/><polygon fill="#A80036" points="265,483.5547,269,493.5547,273,483.5547,269,487.5547" style="stroke:#A80036;stroke-width:1.0;"/><line style="stroke:#A80036;stroke-width:1.5;" x1="269" x2="269" y1="30" y2="76.2969"/><polygon fill="#A80036" points="265,66.2969,269,76.2969,273,66.2969,269,70.2969" style="stroke:#A80036;stroke-width:1.0;"/><line style="stroke:#A80036;stroke-width:1.5;" x1="269" x2="269" y1="527.5234" y2="559.5234"/><polygon fill="#A80036" points="265,549.5234,269,559.5234,273,549.5234,269,553.5234" style="stroke:#A80036;stroke-width:1.0;"/><!--MD5=[6fb4122b88c05211691737a3094bb2db]
@startuml
start
partition "Quizz exam" {
#PaleTurquoise: Build "cliapp" docker image;
note right
Remember to create a SLIM image
end note
#SandyBrown: upload image to dockerhub;
#SandyBrown: Create your manifest file;
note right
you need a configmap for the file config.yml
IMPORTANT: your email xxxx@yncrea.fr is your identifier
end note
#PaleTurquoise: Traefik ingress routing;
note right
OPTION: +2 points
end note
partition "deployment" {
fork
#PaleTurquoise: K3d;
fork again
#PaleTurquoise: K3s on 2 VMs;
fork again
#PaleTurquoise: Docker only; 
note right
OPTION: -2 points
end note
end fork
}
#SandyBrown: Launch the application;
#SandyBrown: Execute the Quizz;
note right
At the end, your data are stored remotely
end note
}
stop
@enduml

PlantUML version 1.2022.1(Tue Feb 01 18:19:58 UTC 2022)
(GPL source distribution)
Java Runtime: Java(TM) SE Runtime Environment
JVM: Java HotSpot(TM) 64-Bit Server VM
Default Encoding: UTF-8
Language: en
Country: US
--></g></svg>